<?xml version="1.0" encoding="utf-8"?>
<!-- Generator: Adobe Illustrator 22.1.0, SVG Export Plug-In . SVG Version: 6.00 Build 0)  -->
<svg version="1.1" id="Calque_1" xmlns="http://www.w3.org/2000/svg" xmlns:xlink="http://www.w3.org/1999/xlink" x="0px" y="0px"
	 viewBox="0 0 1000 1000" style="enable-background:new 0 0 1000 1000;" xml:space="preserve">
<style type="text/css">
	.st0{fill:#F2C688;}
	.st1{fill:#F5DCAF;}
	.st2{opacity:0.7;fill:#FFFFFF;enable-background:new    ;}
	.st3{enable-background:new    ;}
	.st4{fill:#C41002;}
	.st5{fill:#F5DCAF;stroke:#9FC131;stroke-width:5;stroke-miterlimit:10;}
	.st6{fill:#9FC131;stroke:#9FC131;stroke-width:5;stroke-miterlimit:10;}
	.st7{fill:#F2C688;stroke:#9FC131;stroke-width:5;stroke-miterlimit:10;}
	.st8{fill:#9FC131;}
</style>
<title>Plan de travail 1</title>
<path class="st0" d="M176.4,636.2c55.8,164.8,211.7,283.5,395.4,283.5c230.5,0,417.3-186.8,417.3-417.3S802.2,85.1,571.7,85.1
	c-184.6,0-341.3,119.9-396.2,286.1"/>
<path class="st1" d="M194.8,632.3C248,789.7,396.9,902.9,572.2,902.9c220,0,398.4-178.3,398.4-398.4S792.2,106.2,572.2,106.2
	c-176.3,0-325.8,114.5-378.3,273.1"/>
<path class="st2" d="M194.8,632.3C248,789.7,396.9,902.9,572.2,902.9c220,0,398.4-178.3,398.4-398.4S792.2,106.2,572.2,106.2
	c-176.3,0-325.8,114.5-378.3,273.1"/>
<g class="st3">
	<path class="st4" d="M395.6,410.3c-4.8,7.2-9.5,13-14.1,17.5c-4.6,4.5-9.1,6.7-13.4,6.7c-2.2,0-3.8-0.5-4.9-1.5
		c-1.9-1.7-2.8-3.3-2.8-4.7c0-1.5,0.5-2.6,1.4-3.3c9.7-7,20.5-27.6,32.4-61.8l5.7-16.2c6.6-18.5,12.1-30,16.7-34.5
		c1.6-1.2,3.3-1.8,5-1.8s3.3,0.3,4.5,0.8c1.3,0.5,2.4,1.2,3.4,2.1c2.2,1.9,3.3,4.2,3.3,6.8c0,1-0.5,2.4-1.4,4.2
		c-0.9,1.8-1.9,4.2-3.1,7l-12.3,34.1c15.6-2.8,28.6-9.3,38.7-19.4c9.5-9.5,14.3-19.2,14.3-29.2c0-9.5-4.2-15.7-12.7-18.6
		c-2.9-1-6.3-1.5-10.1-1.5c-3.8,0-7.7,0.5-11.7,1.4c-4,1-7.9,2.2-11.8,3.8c-7.8,3.2-14.2,6.9-19.1,11.1c-1.3,1.2-2.7,1.8-4.2,1.8
		c-1.5,0-3-0.3-4.3-1c-1.4-0.6-2.5-1.5-3.6-2.5c-2.4-2.3-3.6-4.6-3.6-6.9c0-2.3,0.8-4.5,2.5-6.3c1.7-1.9,3.9-3.6,6.7-5.1
		c2.8-1.5,6-2.9,9.6-4.1c3.6-1.2,7.3-2.2,11.1-3c7.7-1.6,15.4-2.4,23-2.4s14.6,1,21,2.8c6.3,1.9,11.6,4.5,15.7,7.7
		c8.3,6.4,12.5,14.6,12.5,24.5v1.5c-0.6,12.2-5.2,22.9-13.8,32.2c-7.5,8-17.3,14.4-29.2,19c-10.8,4.2-20.9,6.4-30.5,6.4h-2.5
		c-0.8,0-1.6-0.1-2.4-0.2C405.6,392.2,400.4,403.1,395.6,410.3z"/>
	<path class="st4" d="M516.1,415.7c1.7,0,2.5,1.1,2.5,3.3c0,2.9-1.3,5.9-4,9c-3.9,4.5-9,6.8-15.5,6.8c-7.5,0-12.6-3-15.4-9.1
		c-1-2.1-1.5-4.7-1.5-7.7c0-3,0.5-6.4,1.6-10.1c1.1-3.7,2.4-7.6,4-11.7c1.6-4.1,3.3-8.2,5.2-12.4l5.1-12.2c3.7-9.1,5.6-15.1,5.6-18
		c0-2.9-0.3-4.8-0.9-5.7c-0.6-0.9-1.3-1.7-2-2.2l-1.9-1.4c-0.6-0.4-1-1.2-1-2.4c0-1.1,0.4-2.2,1.3-3.2c0.9-1,2-1.9,3.4-2.7
		c2.9-1.5,6.3-2.2,10.1-2.2c9.5,0,14.2,2.5,14.2,7.4c0,5.8-1.5,12.4-4.5,19.8c-3,7.4-5.6,13.4-7.7,18l-5.8,13.3
		c-4.2,9.8-6.4,16.8-6.4,21.1c0,2.8,1.4,4.2,4.2,4.2c2.8,0,4.9-0.4,6.3-1.1C514.4,416.1,515.5,415.7,516.1,415.7z M535.9,311.2
		c-1.4,1.5-3,2.7-4.8,3.7c-1.8,0.9-3.7,1.5-5.7,1.7c-2,0.2-3.9-0.1-5.6-0.9c-1.8-0.8-3.3-2-4.6-3.6c-2.8-3.2-4.2-6.5-4.2-9.8
		c0-3.3,0.5-5.7,1.6-7.4c1.1-1.6,2.4-3,4-4c3.1-2,6-3,8.7-3s4.9,0.2,6.4,0.6c1.5,0.4,2.9,1,4.2,1.9c3.2,2.1,4.7,4.7,4.7,7.8
		c0,3.1-0.4,5.6-1.3,7.6C538.5,307.9,537.3,309.7,535.9,311.2z"/>
	<path class="st4" d="M557.2,418.3c10.8-3.6,20.8-5.4,29.9-5.4c6.1,0,10.8,1.7,14.2,5.1c3,3.1,4.5,7.3,4.5,12.6c0,1.2-0.4,2.2-1.2,3
		c-0.8,0.8-1.8,1.2-3.1,1.2c-1.3,0-2.6-0.4-4.1-1.1c-1.4-0.7-3.1-1.5-4.9-2.3c-12.2-5.5-25.6-5-40.2,1.4c-1.9,0.8-3.5,1.4-4.8,1.8
		c-1.4,0.4-2.9,0.1-4.5-0.6c-1.7-0.8-3.3-1.8-4.7-3.1c-3.7-3.2-5-6.4-3.9-9.6c1.1-3.2,2.9-6.7,5.4-10.4c2.5-3.8,5.3-7.5,8.5-11.3
		c3.2-3.7,6.7-7.4,10.4-11c9.8-9.2,17-15.6,21.3-19.3c10-8.6,16.2-13.9,18.4-15.9c2.2-2.1,3.7-3.7,4.5-4.9
		c-5.7,2.6-13.1,4.3-22.4,5.3c-2.4,0.3-4.3,0.4-5.9,0.4c-6.6,0-11.3-1.2-14.1-3.6c-2.8-2.4-4.2-6-4.2-10.7c0-1.9,0.4-3.3,1.3-4.4
		c0.8-1.1,1.8-1.6,2.9-1.6c1.1,0,2.6,0.3,4.4,1c1.8,0.7,4.1,1.4,6.7,2.3c6.9,2.2,12.9,3.3,18.2,3.3s8.9-0.3,10.9-0.8
		c2.1-0.5,3.9-1.1,5.5-1.6l4.4-1.7c1.4-0.5,2.7-0.8,4.1-0.8c1.4,0,2.6,0.4,3.6,1.3c1.1,0.9,2,1.9,2.9,3.1c1.9,2.8,2.9,5.4,2.9,7.9
		s-1.4,5.6-4.1,9.1s-6.2,7.3-10.4,11.3c-4.2,4-8.9,8-14.1,12.2l-15.3,12.7C568.6,403.2,560.8,411.6,557.2,418.3z M555.9,420.9
		c0.2-0.1,0.3-0.2,0.2-0.2C556,420.7,555.9,420.7,555.9,420.9z"/>
	<path class="st4" d="M642.2,418.3c10.8-3.6,20.8-5.4,29.9-5.4c6.1,0,10.8,1.7,14.2,5.1c3,3.1,4.5,7.3,4.5,12.6c0,1.2-0.4,2.2-1.2,3
		c-0.8,0.8-1.8,1.2-3.1,1.2c-1.3,0-2.6-0.4-4.1-1.1c-1.4-0.7-3.1-1.5-4.9-2.3c-12.2-5.5-25.6-5-40.2,1.4c-1.9,0.8-3.5,1.4-4.8,1.8
		c-1.4,0.4-2.9,0.1-4.5-0.6c-1.7-0.8-3.3-1.8-4.7-3.1c-3.7-3.2-5-6.4-3.9-9.6c1.1-3.2,2.9-6.7,5.4-10.4c2.5-3.8,5.3-7.5,8.5-11.3
		c3.2-3.7,6.7-7.4,10.4-11c9.8-9.2,17-15.6,21.3-19.3c10-8.6,16.2-13.9,18.4-15.9c2.2-2.1,3.7-3.7,4.5-4.9
		c-5.7,2.6-13.1,4.3-22.4,5.3c-2.4,0.3-4.3,0.4-5.9,0.4c-6.6,0-11.3-1.2-14.1-3.6c-2.8-2.4-4.2-6-4.2-10.7c0-1.9,0.4-3.3,1.3-4.4
		c0.8-1.1,1.8-1.6,2.9-1.6c1.1,0,2.6,0.3,4.4,1c1.8,0.7,4.1,1.4,6.7,2.3c6.9,2.2,12.9,3.3,18.2,3.3s8.9-0.3,10.9-0.8
		c2.1-0.5,3.9-1.1,5.5-1.6l4.4-1.7c1.4-0.5,2.7-0.8,4.1-0.8c1.4,0,2.6,0.4,3.6,1.3c1.1,0.9,2,1.9,2.9,3.1c1.9,2.8,2.9,5.4,2.9,7.9
		s-1.4,5.6-4.1,9.1s-6.2,7.3-10.4,11.3c-4.2,4-8.9,8-14.1,12.2l-15.3,12.7C653.7,403.2,645.9,411.6,642.2,418.3z M641,420.9
		c0.2-0.1,0.3-0.2,0.2-0.2C641,420.7,641,420.7,641,420.9z"/>
	<path class="st4" d="M785.1,408.1c0,5.9,2.1,8.9,6.3,8.9c2.9,0,5.3-0.4,7.2-1.4c1.9-0.9,3.2-1.4,3.8-1.4c1.4,0,2,0.7,2,2.1
		c0,5.5-2.9,10.3-8.7,14.3c-6.1,4.2-12.4,5.2-18.7,3.1c-4.2-1.5-7.3-4.7-9.3-9.6c-1-2.5-1.4-4.8-1.4-6.9c0-3.3,0.3-6.9,1-10.6
		c-6,12.2-13.4,20.7-22.3,25.3c-3.5,1.8-7.3,2.7-11.3,2.7c-4,0-7.5-0.8-10.4-2.5c-2.9-1.6-5.4-3.9-7.5-6.8
		c-4.2-6.1-6.1-13.6-5.7-22.8c0.4-11.5,3.8-22.7,10.1-33.7c5.9-10.3,13.3-18.7,22.2-25.2c8.9-6.6,17.3-9.9,25.1-9.9
		c7.8,0,14.1,3.6,18.8,10.7c4.4-7.1,8.4-10.7,11.8-10.7c3.7,0,6.4,0.7,8.3,2c3.5,2.6,4.8,4.8,3.8,6.8
		c-16.2,33.1-24.5,53.7-24.9,61.8C785.1,405.6,785.1,406.8,785.1,408.1z M731.5,408.5c0,7.7,2.5,11.6,7.4,11.6c3.8,0,8.5-3.2,14-9.7
		c8.1-9.5,15.3-22.2,21.5-38.2c2-5,3.7-10,5-15.1c-0.3-4.4-2.1-7.6-5.5-9.7c-1.2-0.7-2.9-1.1-5.2-1.1c-2.3,0-5,0.8-8,2.5
		c-3.1,1.7-6,4-8.9,6.9c-2.9,2.9-5.5,6.3-8,10.3c-2.5,4-4.7,8.3-6.5,12.9C733.4,388.9,731.5,398.7,731.5,408.5z"/>
</g>
<path class="st5" d="M584.2,503.7L584.2,503.7L584.2,503.7z"/>
<path class="st5" d="M511.5,480.2L42.9,329c0,0-68.1,159,1.2,349.2l237.2-76.7l73.9-23.9l158.5-51.3"/>
<path class="st6" d="M513.8,526.4c-10.7-13.3-11.6-31.9-2.3-46.2l72.7,22.9L513.8,526.4z"/>
<path class="st7" d="M94.8,661.2l-50.7,17.1C6,565,5.6,442.5,42.9,329L95,346"/>
<circle class="st8" cx="375.9" cy="480.7" r="39.5"/>
<path class="st8" d="M281.3,601.6c-2.7-21.7,12.7-41.4,34.3-44.2c16.1-2,31.8,6,39.6,20.3L281.3,601.6z"/>
<circle class="st8" cx="229.6" cy="503.1" r="39.6"/>
<circle class="st8" cx="136" cy="401.6" r="39.5"/>
<circle class="st8" cx="136" cy="607.2" r="39.5"/>
<g class="st3">
	<path class="st8" d="M395.6,714.1c-1.6-3.1-2.9-6.5-3.7-10c-0.8-3.5-1.2-7.3-1.2-11.2c0-3.9,0.7-9.1,2-15.5
		c1.3-6.4,3.2-13.2,5.5-20.3c2.3-7.1,5.1-14.4,8.2-21.8c3.1-7.4,6.4-14.7,9.9-21.8c7.1-14.7,14.3-27.5,21.3-38.3h-1.2
		c-8.7,0-16.7,2-24.2,5.9c-1.8,1.4-3.6,2.1-5.3,2.1c-3.5,0-6.9-1.7-10.2-5.1c-7.6-8-3.1-14.7,13.6-19.9c7.8-2.6,14.1-3.8,18.9-3.8
		c4.8,0,8.6,0.7,11.5,2.2c2.9,1.5,5.4,3.3,7.4,5.3c3.2,3.2,5.5,6.4,6.8,9.5c1.3,3.1,2,5.9,2,8.3c0,2.4-0.7,5.5-2.1,9.5
		c-1.4,4-3.2,8.2-5.4,12.7l-7.4,14.4c-2.6,5-5.3,10.3-7.9,15.9c-2.6,5.5-5.3,11.1-7.9,16.6c-2.6,5.5-5,10.9-7,16.2
		c-4.5,11.7-6.7,21.7-6.7,29.9c0,5,0.5,9,1.4,12.3c3.2-5.1,7.1-10.4,11.8-16l15.3-17.2c17.7-19.1,29.3-31.8,34.6-38.1
		c12.5-14.7,22-28.5,28.7-41.5c2.7-5.2,4-9.9,4-14.1c0-7.8-2.2-13.7-6.5-17.6c-1.5-1.5-1.7-3.4-0.6-5.6c1.1-2.2,2.3-3.8,3.4-4.9
		c2.8-2.6,6.1-3.8,9.6-3.8c3.6,0,6.6,0.7,9.1,2.2c2.5,1.5,4.5,3.3,6,5.6c3.1,4.5,4.7,10,4.7,16.6c0,6.6-1.4,13.6-4.2,21
		c-2.8,7.4-6.5,14.6-11.1,21.6c-4.6,7-9.7,13.9-15.5,20.5c-5.8,6.6-11.7,12.9-17.8,18.9l-33.1,31.2c-10,10.1-16.7,17-20,20.7
		c-6.4,7.2-10.5,11.9-12.4,14.1c-1.8,2.3-3.5,3.6-4.9,4c-1.5,0.4-3.4,0.7-5.9,0.7c-2.5,0-5-1.1-7.6-3.3
		C399.4,719.9,397.2,717.3,395.6,714.1z"/>
	<path class="st8" d="M513.2,686.2c0.3-6.3,1.3-12.4,3.2-18.2c1.8-5.8,4.3-11.4,7.3-16.9c3.1-5.4,6.7-10.6,10.8-15.4
		c4.1-4.9,8.6-9.1,13.4-12.7c10.4-7.8,21-11.7,31.6-11.7c12.5,0,20.8,5.1,25,15.4c1.5,3.5,2.2,7.6,2.1,12.4c-0.1,4.8-1,9.2-2.7,13.2
		c-1.8,4-4.2,7.7-7.3,11.1c-3.1,3.3-6.8,6.3-11.1,8.9s-8.9,4.9-14,6.7c-10.4,3.6-21.5,5.5-33.3,5.7c-0.3,1-0.5,2.6-0.5,4.6
		c-0.1,2,0.1,4.3,0.7,6.8c0.5,2.5,1.4,4.8,2.6,6.7c2.6,4.4,6.4,6.6,11.4,6.6c8.5,0,16.7-2.5,24.7-7.4c2.8-1.7,5.2-3.4,6.9-5.2
		c1.8-1.8,3.3-2.7,4.7-2.7s2.5,0.8,3.4,2.4c1,1.6,1.5,3.3,1.5,5.3c0,3.9-1.1,7.2-3.3,10.1c-9.2,9.2-22.9,13.8-41,13.8
		c-10.7,0-19.3-3.2-25.8-9.6C516.2,708.7,512.8,698.8,513.2,686.2z M577.1,625.8c-7.7,0-15,5.3-22.1,15.8c-6,9-10.8,19.8-14.4,32.2
		c12.2-1.2,22.8-6.1,31.7-14.4c8.2-7.9,12.4-15.4,12.4-22.7S582.1,625.8,577.1,625.8z"/>
	<path class="st8" d="M618.3,721.9c-1.5-1.1-2.6-2.3-3.5-3.7c-0.9-1.3-1.4-2.5-1.4-3.5c-0.1-1,0.1-2.2,0.6-3.6
		c0.5-1.4,1.1-3.2,1.9-5.2c14.9-36.6,22.3-61.2,22.3-73.8c-0.2-3.5-1.4-6-3.6-7.4l-2.2-1.5c-0.7-0.5-1-1.4-1-2.7
		c0-1.3,0.4-2.5,1.4-3.7c0.9-1.2,2.2-2.2,3.7-3.1c3.1-1.7,6.4-2.5,9.7-2.5c3.3,0,5.9,0.4,7.8,1.1c1.9,0.7,3.4,1.7,4.8,3
		c2.8,2.6,4.2,5.4,4.2,8.3c0,2.9-0.3,5.9-1,8.9c-0.7,3-1.5,5.9-2.5,8.8c-0.9,2.9-1.9,5.6-2.8,8.2c-0.9,2.6-1.6,4.5-1.9,5.7
		c-0.6,2.6-0.8,4.2-0.7,4.8c1.8-1.5,2.8-3,3.2-4.5l4.3-8.1c9.5-17.1,18.8-28.4,27.8-33.9c2.6-1.5,5.8-2.3,9.5-2.3
		c3.7,0,6.7,1.3,8.9,3.9c2.3,2.6,3.4,5.5,3.6,8.6c0.1,3.1-0.1,5.7-0.7,7.8c-0.5,2.1-1.4,4-2.5,5.9c-2.4,4.1-5.3,6.1-8.8,6.1
		c-0.9,0-1.8-0.3-2.6-1l-2.4-2.1c-2.4-2.1-4.7-3.2-6.9-3.2c-2.2,0-4.9,1.5-8.1,4.4c-3.2,2.9-6.5,6.7-9.9,11.3
		c-11.5,15.3-20.9,32.3-28.2,51.2l-4.8,12.7c-1.2,3.1-2.3,5.4-3.3,6.7c-0.9,1.3-2.4,2-4.2,2s-3.7-0.3-5.6-1S619.7,723,618.3,721.9z"
		/>
	<path class="st8" d="M772.9,695.8c2.1,0,3.2,1.4,3.2,4.3c0,2.4-0.7,4.7-2.2,7c-2,4.2-5.9,8.2-11.8,12c-6.7,4.3-13.5,6.5-20.2,6.5
		c-11.7,0-19.2-5.3-22.3-15.8c-3.7-12.5,1.9-38.9,16.7-79.3c-8.4-0.7-13-2.2-13.7-4.4c-0.2-0.7-0.3-1.4-0.3-2.1c0-0.8,0.3-1.7,1-2.7
		c0.7-1,1.6-2,2.7-3c2.6-2.1,5.1-3.2,7.8-3.2h8.6c7.9-18.5,13.5-29,16.9-31.5c1.6-1.2,3.4-1.8,5.4-1.8s3.6,0.3,4.9,0.8
		c1.3,0.5,2.5,1.2,3.5,2.2c2.3,2.2,3.5,4.6,3.5,7.3c0,1.5-0.4,3.1-1.3,5l-8.1,17.6h2.6c4.5,0,8.2,0,10.9-0.1l6.2-0.1
		c1.4-0.1,3.1-0.1,5.2-0.1c2.1,0,3.1,0.8,3.1,2.3c0,9.6-11.4,14.4-34.1,14.4h-0.9l-7.4,19.3c-8.4,22.8-12.6,38.7-12.6,47.8
		c0,2.6,0.6,4.5,1.8,6c1.2,1.4,3.4,2.1,6.6,2.1c3.2,0,6.1-0.5,8.8-1.6c2.6-1.1,4.9-2.3,6.9-3.7c2-1.3,3.7-2.6,5.1-3.7
		S771.9,695.8,772.9,695.8z"/>
</g>
</svg>
